<?xml version="1.0"?>
<svg version="1.1" xmlns="http://www.w3.org/2000/svg" width="400" height="50" style=""><path fill="#867070" d="M16.04248046875,18.65966796875q0-0.2734375,0.196533203125-0.452880859375t0.46142578125-0.281982421875t0.5810546875-0.13671875t0.555419921875-0.0341796875q0.49560546875,0,1.051025390625,0.13671875t0.828857421875,0.59814453125q0.49560546875,0.83740234375,0.726318359375,1.990966796875t0.435791015625,2.213134765625q0.3076171875,1.4697265625,0.7861328125,3.076171875t0.999755859375,3.272705078125t1.068115234375,3.272705078125t0.95703125,3.0078125q0.49560546875-2.06787109375,0.914306640625-4.23828125t0.80322265625-4.3408203125t0.80322265625-4.3408203125t0.914306640625-4.25537109375q0.1025390625-0.49560546875,0.15380859375-1.24755859375t0.213623046875-1.45263671875t0.469970703125-1.204833984375t0.93994140625-0.504150390625q0.66650390625,0,0.897216796875,0.367431640625t0.230712890625,1.068115234375q-0.1708984375,1.93115234375-0.555419921875,3.828125t-0.709228515625,3.7939453125q-0.46142578125,2.34130859375-0.999755859375,4.691162109375t-1.00830078125,4.708251953125t-0.80322265625,4.725341796875t-0.401611328125,4.742431640625q0.0341796875,0.1025390625,0.1025390625,0.2392578125t0.068359375,0.205078125q0,0.205078125-0.18798828125,0.384521484375t-0.469970703125,0.3076171875t-0.615234375,0.196533203125t-0.623779296875,0.068359375q-0.2734375,0-0.623779296875-0.0341796875t-0.70068359375-0.128173828125t-0.615234375-0.247802734375t-0.333251953125-0.39306640625q-0.2734375-0.80322265625-0.504150390625-1.563720703125t-0.435791015625-1.563720703125q-0.97412109375-3.50341796875-2.042236328125-6.878662109375t-1.973876953125-6.861572265625q-0.42724609375-1.572265625-0.640869140625-3.084716796875t-0.692138671875-2.982177734375q0.068359375,0.13671875,0.068359375,0.22216796875q-0.068359375-0.2392578125-0.13671875-0.452880859375t-0.15380859375-0.469970703125q0,0.068359375,0.01708984375,0.08544921875t0.01708984375,0.05126953125q0-0.0341796875-0.01708984375-0.05126953125t-0.01708984375-0.05126953125z M34.528051757812,35.71533203125q0-1.572265625,0.367431640625-3.084716796875t0.623779296875-3.016357421875q0.068359375-0.39306640625,0.538330078125-0.487060546875t0.794677734375-0.093994140625q0.56396484375,0,0.90576171875,0.1708984375q0.13671875,0.068359375,0.25634765625,0.15380859375t0.11962890625,0.22216796875q0,1.4697265625-0.350341796875,2.87109375t-0.350341796875,2.9736328125q0,0.52978515625,0.076904296875,0.999755859375t0.145263671875,0.931396484375l0.1025390625,0.49560546875q0,0.13671875,0.01708984375,0.2392578125t0.05126953125,0.2392578125q0,0.3076171875-0.435791015625,0.418701171875t-0.760498046875,0.111083984375q-0.49560546875,0-0.914306640625-0.196533203125t-0.657958984375-0.675048828125l-0.2392578125-0.49560546875q-0.205078125-0.39306640625-0.205078125-0.880126953125t-0.08544921875-0.897216796875z M35.621801757812,25.42724609375l0-0.32470703125q0-0.80322265625,0.401611328125-1.435546875t1.204833984375-0.63232421875q0.1025390625,0,0.196533203125,0.01708984375t0.196533203125,0.01708984375q0.205078125,0.0341796875,0.538330078125,0.162353515625t0.333251953125,0.401611328125l0,0.0341796875q-0.068359375,0.13671875-0.08544921875,0.281982421875t-0.08544921875,0.247802734375l0.0341796875-0.0341796875q-0.205078125,0.52978515625-0.333251953125,0.8544921875t-0.281982421875,0.521240234375t-0.384521484375,0.281982421875t-0.657958984375,0.08544921875q-0.068359375,0-0.2392578125-0.01708984375t-0.367431640625-0.068359375t-0.333251953125-0.13671875t-0.13671875-0.25634765625z M41.990673828125,35.78369140625q0-1.23046875,0.316162109375-2.469482421875t0.982666015625-2.2216796875t1.700439453125-1.597900390625t2.435302734375-0.615234375q0.59814453125,0,1.31591796875,0.145263671875t1.324462890625,0.46142578125t1.025390625,0.8203125t0.418701171875,1.239013671875q0,0.46142578125-0.2392578125,0.615234375t-0.63232421875,0.15380859375l-0.11962890625-0.1708984375t-0.333251953125-0.435791015625t-0.452880859375-0.56396484375t-0.46142578125-0.504150390625q-0.70068359375-0.70068359375-1.31591796875-0.751953125l-0.13671875,0q-0.5126953125,0-0.95703125,0.3076171875q-0.49560546875,0.3759765625-0.880126953125,1.0595703125t-0.640869140625,1.45263671875t-0.401611328125,1.55517578125t-0.145263671875,1.298828125q0,0.70068359375,0.162353515625,1.597900390625t0.546875,1.700439453125t0.97412109375,1.35009765625t1.512451171875,0.546875q0.83740234375,0,1.52099609375-0.41015625t1.307373046875-0.914306640625t1.221923828125-0.90576171875t1.23046875-0.401611328125q0.2734375,0,0.555419921875,0.068359375t0.281982421875,0.35888671875l0,0.1025390625q-0.3076171875,0.80322265625-1.04248046875,1.41845703125t-1.649169921875,1.068115234375t-1.89697265625,0.675048828125t-1.751708984375,0.22216796875q-1.435546875,0-2.520751953125-0.469970703125t-1.802978515625-1.290283203125t-1.085205078125-1.973876953125t-0.367431640625-2.520751953125z M56.203784179687,25.2734375q0-0.2392578125,0.5126953125-0.41015625t1.162109375-0.281982421875t1.256103515625-0.162353515625t0.828857421875-0.08544921875q0-0.46142578125,0.0341796875-0.931396484375t0.18798828125-0.83740234375t0.487060546875-0.589599609375t0.931396484375-0.22216796875q0.49560546875,0,0.751953125,0.11962890625t0.546875,0.49560546875q0.068359375,0.205078125,0.068359375,0.39306640625l0,0.572509765625t-0.0341796875,0.589599609375q0.63232421875-0.068359375,1.256103515625-0.162353515625t1.256103515625-0.093994140625q0.46142578125,0,0.63232421875,0.01708984375t0.341796875,0.41015625q0.13671875,0.39306640625-0.333251953125,0.59814453125t-1.1279296875,0.3076171875t-1.307373046875,0.15380859375t-0.7861328125,0.05126953125q-0.205078125,2.939453125-0.418701171875,5.82763671875t-0.213623046875,5.86181640625q0,1.3330078125,0.08544921875,2.75146484375t0.478515625,2.68310546875q0.1025390625,0.39306640625,0.341796875,0.73486328125t0.2392578125,0.73486328125q0,0.2392578125-0.18798828125,0.3759765625t-0.452880859375,0.230712890625t-0.52978515625,0.111083984375t-0.435791015625,0.01708984375q-1.07666015625,0-1.640625-0.80322265625t-0.811767578125-1.922607421875t-0.264892578125-2.298583984375t-0.01708984375-1.9140625q0-1.50390625,0.059814453125-3.076171875t0.145263671875-3.1103515625t0.2392578125-3.0078125t0.35888671875-2.734375q-0.59814453125,0.068359375-1.170654296875,0.15380859375t-1.170654296875,0.08544921875q-0.13671875,0-0.367431640625-0.01708984375t-0.435791015625-0.08544921875t-0.350341796875-0.18798828125t-0.145263671875-0.341796875z M68.930078125,36.4501953125q0-0.97412109375,0.247802734375-2.008056640625t0.7861328125-1.86279296875t1.358642578125-1.35009765625t1.982421875-0.521240234375q0.87158203125,0,1.837158203125,0.299072265625t1.768798828125,0.8544921875t1.307373046875,1.358642578125t0.504150390625,1.79443359375q0,1.1962890625-0.435791015625,2.27294921875t-1.221923828125,1.922607421875t-1.837158203125,1.3330078125t-2.281494140625,0.487060546875q-1.00830078125,0-1.76025390625-0.367431640625t-1.256103515625-0.982666015625t-0.751953125-1.45263671875t-0.247802734375-1.77734375z M71.44228515625,36.416015625q0,0.3076171875,0.093994140625,0.90576171875t0.281982421875,1.170654296875t0.487060546875,0.9912109375t0.726318359375,0.384521484375q0.90576171875-0.1025390625,1.495361328125-0.589599609375t0.95703125-1.187744140625t0.5126953125-1.52099609375t0.145263671875-1.55517578125q0-0.93994140625-0.367431640625-1.572265625t-1.204833984375-1.025390625q0,0.0341796875,0.0341796875,0.0341796875t0.0341796875-0.0341796875l-0.42724609375-0.1025390625q-0.1708984375-0.068359375-0.418701171875-0.15380859375t-0.487060546875-0.3759765625q-0.66650390625,0.2392578125-1.033935546875,0.615234375t-0.555419921875,0.914306640625t-0.230712890625,1.290283203125t-0.042724609375,1.8115234375z M81.878540039062,31.34033203125q0-0.70068359375,0.247802734375-1.17919921875t1.051025390625-0.478515625q0.3076171875,0,0.76904296875,0.093994140625t0.52978515625,0.469970703125q0.1708984375,1.00830078125,0.18798828125,2.1875t0.11962890625,2.2216796875q0.39306640625-0.76904296875,1.00830078125-1.65771484375t1.4013671875-1.640625t1.708984375-1.24755859375t1.8798828125-0.49560546875q0.068359375,0,0.25634765625,0.05126953125t0.350341796875,0.145263671875t0.196533203125,0.213623046875t-0.18798828125,0.22216796875q-0.068359375,0.205078125-0.29052734375,0.247802734375t-0.39306640625,0.042724609375q-0.1025390625,0-0.32470703125-0.08544921875q-1.2646484375,0.66650390625-2.1533203125,1.8115234375t-1.45263671875,2.537841796875t-0.8203125,2.939453125t-0.25634765625,3.016357421875q0,0.73486328125-0.333251953125,0.888671875t-1.068115234375,0.15380859375q-0.39306640625,0-0.828857421875-0.08544921875t-0.606689453125-0.546875q-0.3076171875-0.97412109375-0.504150390625-2.23876953125t-0.299072265625-2.606201171875t-0.145263671875-2.640380859375t-0.042724609375-2.34130859375z M94.023779296875,35.71533203125q0-1.572265625,0.367431640625-3.084716796875t0.623779296875-3.016357421875q0.068359375-0.39306640625,0.538330078125-0.487060546875t0.794677734375-0.093994140625q0.56396484375,0,0.90576171875,0.1708984375q0.13671875,0.068359375,0.25634765625,0.15380859375t0.11962890625,0.22216796875q0,1.4697265625-0.350341796875,2.87109375t-0.350341796875,2.9736328125q0,0.52978515625,0.076904296875,0.999755859375t0.145263671875,0.931396484375l0.1025390625,0.49560546875q0,0.13671875,0.01708984375,0.2392578125t0.05126953125,0.2392578125q0,0.3076171875-0.435791015625,0.418701171875t-0.760498046875,0.111083984375q-0.49560546875,0-0.914306640625-0.196533203125t-0.657958984375-0.675048828125l-0.2392578125-0.49560546875q-0.205078125-0.39306640625-0.205078125-0.880126953125t-0.08544921875-0.897216796875z M95.117529296875,25.42724609375l0-0.32470703125q0-0.80322265625,0.401611328125-1.435546875t1.204833984375-0.63232421875q0.1025390625,0,0.196533203125,0.01708984375t0.196533203125,0.01708984375q0.205078125,0.0341796875,0.538330078125,0.162353515625t0.333251953125,0.401611328125l0,0.0341796875q-0.068359375,0.13671875-0.08544921875,0.281982421875t-0.08544921875,0.247802734375l0.0341796875-0.0341796875q-0.205078125,0.52978515625-0.333251953125,0.8544921875t-0.281982421875,0.521240234375t-0.384521484375,0.281982421875t-0.657958984375,0.08544921875q-0.068359375,0-0.2392578125-0.01708984375t-0.367431640625-0.068359375t-0.333251953125-0.13671875t-0.13671875-0.25634765625z M101.48640136719,36.12548828125q0-1.162109375,0.316162109375-2.23876953125t0.948486328125-1.922607421875t1.580810546875-1.35009765625t2.196044921875-0.504150390625q0.76904296875,0,1.700439453125,0.230712890625t1.751708984375,0.68359375t1.3671875,1.153564453125t0.546875,1.6064453125q0,0.42724609375-0.145263671875,0.6494140625t-0.589599609375,0.22216796875l-0.18798828125-0.0341796875q0.49560546875,1.3330078125,0.8544921875,2.734375t0.70068359375,2.802734375q0.13671875,0.2734375,0.205078125,0.487060546875t0.068359375,0.418701171875q0,0.2734375-0.15380859375,0.452880859375t-0.401611328125,0.264892578125t-0.5126953125,0.11962890625t-0.469970703125,0.0341796875q-0.73486328125,0-1.102294921875-0.25634765625t-0.52978515625-0.70068359375t-0.196533203125-0.999755859375t-0.13671875-1.119384765625q-0.205078125,0.66650390625-0.538330078125,1.298828125t-0.7861328125,1.136474609375t-1.068115234375,0.80322265625t-1.38427734375,0.299072265625q-1.1279296875,0-1.89697265625-0.6494140625t-1.239013671875-1.597900390625t-0.68359375-2.025146484375t-0.213623046875-1.99951171875z M103.91315917969,35.88623046875q0,0.63232421875,0.08544921875,1.3330078125t0.281982421875,1.38427734375t0.504150390625,1.290283203125t0.76904296875,1.068115234375q0.83740234375-0.90576171875,1.239013671875-2.20458984375t0.7177734375-2.503662109375t0.7177734375-2.06787109375t1.239013671875-0.863037109375q0.52978515625,0,0.888671875,0.18798828125q-0.1708984375-0.42724609375-0.56396484375-0.828857421875t-0.880126953125-0.73486328125t-1.00830078125-0.546875t-0.982666015625-0.213623046875q-0.13671875,0-0.316162109375,0.042724609375t-0.281982421875,0.008544921875q-0.70068359375,0.205078125-1.153564453125,0.709228515625t-0.73486328125,1.187744140625t-0.401611328125,1.4013671875t-0.11962890625,1.35009765625z M122.95705566406,19.0869140625q0-0.80322265625,0.196533203125-1.170654296875t0.56396484375-0.5126953125t0.888671875-0.111083984375t1.221923828125,0.0341796875q1.77734375,0,3.5888671875,0.546875t3.26416015625,1.597900390625t2.34130859375,2.589111328125t0.888671875,3.53759765625q0,1.3330078125-0.384521484375,2.520751953125t-1.085205078125,2.2216796875t-1.640625,1.888427734375t-2.06787109375,1.48681640625q0.46142578125,0.46142578125,1.1962890625,1.632080078125t1.45263671875,2.4951171875t1.273193359375,2.572021484375t0.657958984375,1.8798828125l-0.205078125,0.3076171875q-0.46142578125,0.2734375-1.11083984375,0.29052734375q-0.3076171875,0-0.80322265625-0.076904296875t-0.63232421875-0.452880859375q-0.70068359375-1.96533203125-1.529541015625-4.05029296875t-2.042236328125-3.759765625l0-0.0341796875q-0.42724609375,0.1708984375-0.845947265625,0.333251953125t-0.845947265625,0.299072265625q0.13671875,1.89697265625,0.281982421875,3.734130859375t0.145263671875,3.717041015625q0,0.2392578125-0.230712890625,0.384521484375t-0.521240234375,0.230712890625t-0.589599609375,0.11962890625t-0.487060546875,0.0341796875q-0.1708984375,0-0.487060546875-0.0341796875t-0.606689453125-0.11962890625t-0.504150390625-0.247802734375t-0.213623046875-0.435791015625q0-1.89697265625-0.08544921875-3.785400390625t-0.18798828125-3.768310546875q-0.52978515625-0.341796875-0.52978515625-0.888671875q0-0.42724609375,0.41015625-0.5810546875q-0.205078125-3.60595703125-0.469970703125-7.19482421875t-0.264892578125-7.22900390625z M126.05031738281,18.55712890625q0.2392578125,3.70849609375,0.538330078125,7.33154296875t0.572509765625,7.33154296875q1.1962890625-0.341796875,2.230224609375-1.187744140625t1.785888671875-1.905517578125t1.170654296875-2.30712890625t0.418701171875-2.47802734375q0-1.3671875-0.546875-2.623291015625t-1.45263671875-2.196044921875q-0.9228515625-0.93994140625-2.119140625-1.4697265625q-1.0595703125-0.46142578125-2.2216796875-0.46142578125l-0.3076171875,0z M139.40893554688,36.12548828125q0-1.162109375,0.316162109375-2.23876953125t0.948486328125-1.922607421875t1.580810546875-1.35009765625t2.196044921875-0.504150390625q0.76904296875,0,1.700439453125,0.230712890625t1.751708984375,0.68359375t1.3671875,1.153564453125t0.546875,1.6064453125q0,0.42724609375-0.145263671875,0.6494140625t-0.589599609375,0.22216796875l-0.18798828125-0.0341796875q0.49560546875,1.3330078125,0.8544921875,2.734375t0.70068359375,2.802734375q0.13671875,0.2734375,0.205078125,0.487060546875t0.068359375,0.418701171875q0,0.2734375-0.15380859375,0.452880859375t-0.401611328125,0.264892578125t-0.5126953125,0.11962890625t-0.469970703125,0.0341796875q-0.73486328125,0-1.102294921875-0.25634765625t-0.52978515625-0.70068359375t-0.196533203125-0.999755859375t-0.13671875-1.119384765625q-0.205078125,0.66650390625-0.538330078125,1.298828125t-0.7861328125,1.136474609375t-1.068115234375,0.80322265625t-1.38427734375,0.299072265625q-1.1279296875,0-1.89697265625-0.6494140625t-1.239013671875-1.597900390625t-0.68359375-2.025146484375t-0.213623046875-1.99951171875z M141.83569335938,35.88623046875q0,0.63232421875,0.08544921875,1.3330078125t0.281982421875,1.38427734375t0.504150390625,1.290283203125t0.76904296875,1.068115234375q0.83740234375-0.90576171875,1.239013671875-2.20458984375t0.7177734375-2.503662109375t0.7177734375-2.06787109375t1.239013671875-0.863037109375q0.52978515625,0,0.888671875,0.18798828125q-0.1708984375-0.42724609375-0.56396484375-0.828857421875t-0.880126953125-0.73486328125t-1.00830078125-0.546875t-0.982666015625-0.213623046875q-0.13671875,0-0.316162109375,0.042724609375t-0.281982421875,0.008544921875q-0.70068359375,0.205078125-1.153564453125,0.709228515625t-0.73486328125,1.187744140625t-0.401611328125,1.4013671875t-0.11962890625,1.35009765625z M154.26291503906,31.844482421875q-0.042724609375-0.572509765625,0.068359375-1.051025390625t0.4443359375-0.777587890625t1.068115234375-0.299072265625q0.1708984375,0,0.418701171875,0.042724609375t0.487060546875,0.111083984375t0.401611328125,0.205078125t0.162353515625,0.3759765625l0,1.93115234375q0.66650390625-0.76904296875,1.45263671875-1.102294921875t1.79443359375-0.333251953125q0.76904296875,0,1.52099609375,0.350341796875t1.41845703125,0.931396484375t1.153564453125,1.28173828125t0.709228515625,1.4013671875q0.13671875-0.63232421875,0.3076171875-1.546630859375t0.504150390625-1.751708984375t0.880126953125-1.435546875t1.45263671875-0.59814453125q0.97412109375,0,1.640625,0.70068359375t1.085205078125,1.820068359375t0.63232421875,2.503662109375t0.316162109375,2.734375t0.1025390625,2.520751953125l0,1.837158203125q0,0.205078125-0.15380859375,0.333251953125t-0.384521484375,0.196533203125t-0.478515625,0.08544921875t-0.384521484375,0.01708984375q-0.52978515625,0-0.965576171875-0.162353515625t-0.435791015625-0.828857421875l0-1.5380859375t-0.0341796875-1.990966796875t-0.11962890625-2.13623046875t-0.22216796875-1.939697265625t-0.350341796875-1.4013671875t-0.521240234375-0.546875q-0.42724609375,0-0.615234375,0.478515625t-0.316162109375,1.21337890625t-0.196533203125,1.55517578125t-0.18798828125,1.55517578125t-0.384521484375,1.204833984375t-0.726318359375,0.469970703125q-0.49560546875,0-0.87158203125-0.469970703125t-0.743408203125-1.170654296875t-0.73486328125-1.50390625t-0.811767578125-1.50390625q-0.4443359375-0.7177734375-0.95703125-1.162109375q-0.46142578125-0.42724609375-1.04248046875-0.41015625l-0.08544921875,0q-0.76904296875,0.0341796875-1.204833984375,0.555419921875t-0.66650390625,1.273193359375t-0.281982421875,1.614990234375t-0.05126953125,1.512451171875q0,0.615234375,0.1025390625,1.435546875q0.068359375,0.546875,0.068359375,1.04248046875q0,0.25634765625-0.01708984375,0.49560546875q-0.05126953125,0.7177734375-0.384521484375,1.204833984375t-1.239013671875,0.487060546875q-0.341796875,0-0.8544921875-0.068359375t-0.68359375-0.46142578125q-0.39306640625-0.70068359375-0.59814453125-1.768798828125t-0.3076171875-2.20458984375t-0.11962890625-2.255859375t-0.01708984375-1.922607421875q0-0.56396484375-0.042724609375-1.136474609375z M175.47431640625,36.4501953125q0-0.97412109375,0.247802734375-2.008056640625t0.7861328125-1.86279296875t1.358642578125-1.35009765625t1.982421875-0.521240234375q0.87158203125,0,1.837158203125,0.299072265625t1.768798828125,0.8544921875t1.307373046875,1.358642578125t0.504150390625,1.79443359375q0,1.1962890625-0.435791015625,2.27294921875t-1.221923828125,1.922607421875t-1.837158203125,1.3330078125t-2.281494140625,0.487060546875q-1.00830078125,0-1.76025390625-0.367431640625t-1.256103515625-0.982666015625t-0.751953125-1.45263671875t-0.247802734375-1.77734375z M177.9865234375,36.416015625q0,0.3076171875,0.093994140625,0.90576171875t0.281982421875,1.170654296875t0.487060546875,0.9912109375t0.726318359375,0.384521484375q0.90576171875-0.1025390625,1.495361328125-0.589599609375t0.95703125-1.187744140625t0.5126953125-1.52099609375t0.145263671875-1.55517578125q0-0.93994140625-0.367431640625-1.572265625t-1.204833984375-1.025390625q0,0.0341796875,0.0341796875,0.0341796875t0.0341796875-0.0341796875l-0.42724609375-0.1025390625q-0.1708984375-0.068359375-0.418701171875-0.15380859375t-0.487060546875-0.3759765625q-0.66650390625,0.2392578125-1.033935546875,0.615234375t-0.555419921875,0.914306640625t-0.230712890625,1.290283203125t-0.042724609375,1.8115234375z M188.42277832031,31.71630859375q0-0.70068359375,0.41015625-1.204833984375t0.999755859375-0.8203125t1.290283203125-0.469970703125t1.298828125-0.15380859375q0.46142578125,0,1.23046875,0.13671875t1.50390625,0.41015625t1.273193359375,0.7177734375t0.538330078125,1.04248046875q0,0.2734375-0.205078125,0.487060546875t-0.42724609375,0.213623046875q-0.46142578125,0-0.83740234375-0.299072265625t-0.777587890625-0.63232421875t-0.880126953125-0.63232421875t-1.07666015625-0.299072265625t-1.085205078125,0.384521484375t-0.487060546875,1.016845703125q0,1.04248046875,0.73486328125,2.042236328125t1.614990234375,2.10205078125t1.614990234375,2.315673828125t0.73486328125,2.68310546875q0,0.63232421875-0.264892578125,1.068115234375t-0.70068359375,0.709228515625t-0.982666015625,0.418701171875t-1.0595703125,0.145263671875q-0.56396484375,0-1.31591796875-0.264892578125t-1.41845703125-0.70068359375t-1.119384765625-1.016845703125t-0.452880859375-1.21337890625q0-0.3076171875,0.435791015625-0.39306640625t0.640869140625-0.08544921875q0.1025390625,0,0.316162109375,0.068359375t0.418701171875,0.15380859375t0.367431640625,0.18798828125t0.128173828125,0.22216796875q0.1708984375,0.205078125,0.521240234375,0.606689453125t0.70068359375,0.6494140625t0.615234375,0.179443359375t0.264892578125-0.76904296875q0-1.3330078125-0.7177734375-2.452392578125t-1.563720703125-2.1875t-1.563720703125-2.119140625t-0.7177734375-2.247314453125z"/><path fill="#" d=""/></svg>
